<?xml version="1.0" encoding="UTF-8" standalone="no"?>
<!-- Created with Digital by H.Neemann -->
<!-- created: Fri Aug 20 01:50:09 CEST 2021 -->

<svg
   xmlns:svg="http://www.w3.org/2000/svg"
   xmlns="http://www.w3.org/2000/svg"
   width="52.8mm"
   height="11.1mm"
   viewBox="774 383 352 74">
<g stroke-linecap="square">
<path d="M 840,400 L 880,400" stroke="#3b3b3b" stroke-width="4.0" fill="none"/>
<path d="M 1000,420 L 1040,420" stroke="#3b3b3b" stroke-width="4.0" fill="none"/>
<path d="M 940,420 L 960,420" stroke="#3b3b3b" stroke-width="4.0" fill="none"/>
<path d="M 840,440 L 880,440" stroke="#3b3b3b" stroke-width="4.0" fill="none"/>
<g>
</g>
<g>
<path d="M 910,450 L 881,450 L 881,390 L 910,390 C 920,390 940,400 939,420 C 939,440 920,450 910,450 Z" stroke="#000000" stroke-width="4.0" fill="none"/>
<circle cx="880.0" cy="400.0" r="2.0" stroke="#3b3b3b" stroke-width="4.0" fill="#3b3b3b" />
<circle cx="880.0" cy="440.0" r="2.0" stroke="#3b3b3b" stroke-width="4.0" fill="#3b3b3b" />
<circle cx="940.0" cy="420.0" r="2.0" stroke="#3b3b3b" stroke-width="4.0" fill="#3b3b3b" />
</g>
<g>
<path d="M 809,385 L 839,385 L 839,415 L 809,415 Z" stroke="#000000" stroke-width="4.0" fill="none"/>
<circle cx="824.0" cy="400.0" r="9.0" stroke="#000000" stroke-width="4.0" fill="none" />
<text text-anchor="end" x="795.0" y="409.0" fill="#000000" style="font-size:24px"><tspan style="font-style:italic;">In</tspan></text>
<circle cx="840.0" cy="400.0" r="2.0" stroke="#3b3b3b" stroke-width="4.0" fill="#3b3b3b" />
</g>
<g>
<path d="M 809,425 L 839,425 L 839,455 L 809,455 Z" stroke="#000000" stroke-width="4.0" fill="none"/>
<circle cx="824.0" cy="440.0" r="9.0" stroke="#000000" stroke-width="4.0" fill="none" />
<text text-anchor="end" x="795.0" y="449.0" fill="#000000" style="font-size:24px"><tspan style="font-style:italic;">In</tspan></text>
<circle cx="840.0" cy="440.0" r="2.0" stroke="#3b3b3b" stroke-width="4.0" fill="#3b3b3b" />
</g>
<g>
<circle cx="1056.0" cy="420.0" r="9.0" stroke="#000000" stroke-width="4.0" fill="none" />
<circle cx="1056.0" cy="420.0" r="15.0" stroke="#000000" stroke-width="4.0" fill="none" />
<text text-anchor="start" x="1085.0" y="429.0" fill="#000000" style="font-size:24px"><tspan style="font-style:italic;">Out</tspan></text>
<circle cx="1040.0" cy="420.0" r="2.0" stroke="#3b3b3b" stroke-width="4.0" fill="#3b3b3b" />
</g>
<g>
<path d="M 961,408 L 979,420 L 961,432 Z" stroke="#000000" stroke-width="4.0" fill="none"/>
<circle cx="990.0" cy="420.0" r="9.0" stroke="#000000" stroke-width="4.0" fill="none" />
<circle cx="960.0" cy="420.0" r="2.0" stroke="#3b3b3b" stroke-width="4.0" fill="#3b3b3b" />
<circle cx="1000.0" cy="420.0" r="2.0" stroke="#3b3b3b" stroke-width="4.0" fill="#3b3b3b" />
</g>
</g>
</svg>