<?xml version="1.0" encoding="UTF-8" standalone="no"?>
<!-- Created with Digital by H.Neemann -->
<!-- created: Fri Aug 20 01:50:26 CEST 2021 -->

<svg
   xmlns:svg="http://www.w3.org/2000/svg"
   xmlns="http://www.w3.org/2000/svg"
   width="52.8mm"
   height="11.1mm"
   viewBox="774 523 352 74">
<g stroke-linecap="square">
<path d="M 1000,560 L 1040,560" stroke="#3b3b3b" stroke-width="4.0" fill="none"/>
<path d="M 940,560 L 960,560" stroke="#3b3b3b" stroke-width="4.0" fill="none"/>
<path d="M 840,580 L 880,580 L 884,580" stroke="#3b3b3b" stroke-width="4.0" fill="none"/>
<path d="M 840,540 L 880,540 L 884,540" stroke="#3b3b3b" stroke-width="4.0" fill="none"/>
<g>
</g>
<g>
<path d="M 809,525 L 839,525 L 839,555 L 809,555 Z" stroke="#000000" stroke-width="4.0" fill="none"/>
<circle cx="824.0" cy="540.0" r="9.0" stroke="#000000" stroke-width="4.0" fill="none" />
<text text-anchor="end" x="795.0" y="549.0" fill="#000000" style="font-size:24px"><tspan style="font-style:italic;">In</tspan></text>
<circle cx="840.0" cy="540.0" r="2.0" stroke="#3b3b3b" stroke-width="4.0" fill="#3b3b3b" />
</g>
<g>
<path d="M 809,565 L 839,565 L 839,595 L 809,595 Z" stroke="#000000" stroke-width="4.0" fill="none"/>
<circle cx="824.0" cy="580.0" r="9.0" stroke="#000000" stroke-width="4.0" fill="none" />
<text text-anchor="end" x="795.0" y="589.0" fill="#000000" style="font-size:24px"><tspan style="font-style:italic;">In</tspan></text>
<circle cx="840.0" cy="580.0" r="2.0" stroke="#3b3b3b" stroke-width="4.0" fill="#3b3b3b" />
</g>
<g>
<circle cx="1056.0" cy="560.0" r="9.0" stroke="#000000" stroke-width="4.0" fill="none" />
<circle cx="1056.0" cy="560.0" r="15.0" stroke="#000000" stroke-width="4.0" fill="none" />
<text text-anchor="start" x="1085.0" y="569.0" fill="#000000" style="font-size:24px"><tspan style="font-style:italic;">Out</tspan></text>
<circle cx="1040.0" cy="560.0" r="2.0" stroke="#3b3b3b" stroke-width="4.0" fill="#3b3b3b" />
</g>
<g>
<path d="M 961,548 L 979,560 L 961,572 Z" stroke="#000000" stroke-width="4.0" fill="none"/>
<circle cx="990.0" cy="560.0" r="9.0" stroke="#000000" stroke-width="4.0" fill="none" />
<circle cx="960.0" cy="560.0" r="2.0" stroke="#3b3b3b" stroke-width="4.0" fill="#3b3b3b" />
<circle cx="1000.0" cy="560.0" r="2.0" stroke="#3b3b3b" stroke-width="4.0" fill="#3b3b3b" />
</g>
<g>
<path d="M 890,590 L 880,590 C 890,580 890,540 880,530 L 890,530 C 900,530 920,540 940,560 C 920,580 900,590 890,590 Z" stroke="#000000" stroke-width="4.0" fill="none"/>
<circle cx="880.0" cy="540.0" r="2.0" stroke="#3b3b3b" stroke-width="4.0" fill="#3b3b3b" />
<circle cx="880.0" cy="580.0" r="2.0" stroke="#3b3b3b" stroke-width="4.0" fill="#3b3b3b" />
<circle cx="940.0" cy="560.0" r="2.0" stroke="#3b3b3b" stroke-width="4.0" fill="#3b3b3b" />
</g>
</g>
</svg>