<?xml version="1.0" encoding="UTF-8" standalone="no"?>
<!-- Created with Digital by H.Neemann -->
<!-- created: Fri Aug 20 01:49:35 CEST 2021 -->

<svg
   xmlns:svg="http://www.w3.org/2000/svg"
   xmlns="http://www.w3.org/2000/svg"
   width="40.8mm"
   height="11.1mm"
   viewBox="374 523 272 74">
<g stroke-linecap="square">
<path d="M 540,560 L 560,560" stroke="#3b3b3b" stroke-width="4.0" fill="none"/>
<path d="M 440,580 L 480,580 L 484,580" stroke="#3b3b3b" stroke-width="4.0" fill="none"/>
<path d="M 440,540 L 480,540 L 484,540" stroke="#3b3b3b" stroke-width="4.0" fill="none"/>
<g>
</g>
<g>
<path d="M 490,590 L 480,590 C 490,580 490,540 480,530 L 490,530 C 500,530 520,540 540,560 C 520,580 500,590 490,590 Z" stroke="#000000" stroke-width="4.0" fill="none"/>
<circle cx="480.0" cy="540.0" r="2.0" stroke="#3b3b3b" stroke-width="4.0" fill="#3b3b3b" />
<circle cx="480.0" cy="580.0" r="2.0" stroke="#3b3b3b" stroke-width="4.0" fill="#3b3b3b" />
<circle cx="540.0" cy="560.0" r="2.0" stroke="#3b3b3b" stroke-width="4.0" fill="#3b3b3b" />
</g>
<g>
<path d="M 409,525 L 439,525 L 439,555 L 409,555 Z" stroke="#000000" stroke-width="4.0" fill="none"/>
<circle cx="424.0" cy="540.0" r="9.0" stroke="#000000" stroke-width="4.0" fill="none" />
<text text-anchor="end" x="395.0" y="549.0" fill="#000000" style="font-size:24px"><tspan style="font-style:italic;">In</tspan></text>
<circle cx="440.0" cy="540.0" r="2.0" stroke="#3b3b3b" stroke-width="4.0" fill="#3b3b3b" />
</g>
<g>
<path d="M 409,565 L 439,565 L 439,595 L 409,595 Z" stroke="#000000" stroke-width="4.0" fill="none"/>
<circle cx="424.0" cy="580.0" r="9.0" stroke="#000000" stroke-width="4.0" fill="none" />
<text text-anchor="end" x="395.0" y="589.0" fill="#000000" style="font-size:24px"><tspan style="font-style:italic;">In</tspan></text>
<circle cx="440.0" cy="580.0" r="2.0" stroke="#3b3b3b" stroke-width="4.0" fill="#3b3b3b" />
</g>
<g>
<circle cx="576.0" cy="560.0" r="9.0" stroke="#000000" stroke-width="4.0" fill="none" />
<circle cx="576.0" cy="560.0" r="15.0" stroke="#000000" stroke-width="4.0" fill="none" />
<text text-anchor="start" x="605.0" y="569.0" fill="#000000" style="font-size:24px"><tspan style="font-style:italic;">Out</tspan></text>
<circle cx="560.0" cy="560.0" r="2.0" stroke="#3b3b3b" stroke-width="4.0" fill="#3b3b3b" />
</g>
</g>
</svg>